<svg width="24" height="24" viewBox="0 0 24 24" fill="none" xmlns="http://www.w3.org/2000/svg">
<path d="M19.375 15.1025C20.0239 13.5608 20.1733 11.8545 19.8021 10.2235C19.431 8.59255 18.558 7.11889 17.306 6.00975C16.0539 4.90061 14.4857 4.21176 12.8219 4.04006C11.158 3.86835 9.48222 4.22243 8.03004 5.0525L7.03804 3.3155C8.55567 2.44811 10.2742 1.99386 12.0222 1.99808C13.7703 2.00229 15.4866 2.46481 17 3.3395C21.49 5.9315 23.21 11.4815 21.117 16.1095L22.459 16.8835L18.294 19.0975L18.129 14.3835L19.375 15.1025ZM4.62504 8.8965C3.97618 10.4382 3.82682 12.1445 4.19796 13.7755C4.56909 15.4064 5.44205 16.8801 6.69411 17.9892C7.94617 19.0984 9.51436 19.7872 11.1782 19.9589C12.842 20.1306 14.5179 19.7766 15.97 18.9465L16.962 20.6835C15.4444 21.5509 13.7258 22.0051 11.9778 22.0009C10.2298 21.9967 8.51347 21.5342 7.00004 20.6595C2.51004 18.0675 0.790039 12.5175 2.88304 7.8895L1.54004 7.1165L5.70504 4.9025L5.87004 9.6165L4.62404 8.8975L4.62504 8.8965ZM8.50004 13.9995H14C14.1326 13.9995 14.2598 13.9468 14.3536 13.8531C14.4474 13.7593 14.5 13.6321 14.5 13.4995C14.5 13.3669 14.4474 13.2397 14.3536 13.1459C14.2598 13.0522 14.1326 12.9995 14 12.9995H10C9.337 12.9995 8.70111 12.7361 8.23227 12.2673C7.76343 11.7984 7.50004 11.1625 7.50004 10.4995C7.50004 9.83646 7.76343 9.20057 8.23227 8.73173C8.70111 8.26289 9.337 7.9995 10 7.9995H11V6.9995H13V7.9995H15.5V9.9995H10C9.86743 9.9995 9.74025 10.0522 9.64649 10.1459C9.55272 10.2397 9.50004 10.3669 9.50004 10.4995C9.50004 10.6321 9.55272 10.7593 9.64649 10.8531C9.74025 10.9468 9.86743 10.9995 10 10.9995H14C14.6631 10.9995 15.299 11.2629 15.7678 11.7317C16.2366 12.2006 16.5 12.8365 16.5 13.4995C16.5 14.1625 16.2366 14.7984 15.7678 15.2673C15.299 15.7361 14.6631 15.9995 14 15.9995H13V16.9995H11V15.9995H8.50004V13.9995Z" fill="white"/>
</svg>
